<?xml version="1.0" standalone="no"?><!DOCTYPE svg PUBLIC "-//W3C//DTD SVG 1.1//EN" "http://www.w3.org/Graphics/SVG/1.1/DTD/svg11.dtd"><svg t="1773024888599" class="icon" viewBox="0 0 1024 1024" version="1.1" xmlns="http://www.w3.org/2000/svg" p-id="22635" xmlns:xlink="http://www.w3.org/1999/xlink" width="200" height="200"><path d="M906.4 630c-21-110.3-86.7-208.7-177.4-270.8V254.4c26.1-31.6 46-68.4 57.7-108.2 12.1-41.1-18.5-82.3-61.3-82.3H298.7c-42.8 0-73.5 41.2-61.3 82.3 11.6 39.2 31.1 75.7 56.7 107V360c-90.3 62-155.5 160.2-176.5 270-7.5 39.3 22.9 75.6 62.9 75.6H480V928c0 17.7 14.3 32 32 32s32-14.3 32-32V705.6h299.4c40 0 70.5-36.3 63-75.6z" p-id="22636"></path></svg>